<mxfile host="app.diagrams.net" modified="2022-05-06T17:04:56.908Z" agent="5.0 (Windows NT 10.0; Win64; x64) AppleWebKit/537.36 (KHTML, like Gecko) Chrome/101.0.4951.54 Safari/537.36" etag="YoW-yiYSOxXZEbYzrGmf" version="18.0.0" type="github">
  <diagram id="C5RBs43oDa-KdzZeNtuy" name="Page-1">
    <mxGraphModel dx="3197" dy="1323" grid="1" gridSize="10" guides="1" tooltips="1" connect="1" arrows="1" fold="1" page="1" pageScale="1" pageWidth="827" pageHeight="1169" math="0" shadow="0">
      <root>
        <mxCell id="WIyWlLk6GJQsqaUBKTNV-0" />
        <mxCell id="WIyWlLk6GJQsqaUBKTNV-1" parent="WIyWlLk6GJQsqaUBKTNV-0" />
        <mxCell id="iLrSLBKpsEFtm4TIy_wU-1" style="edgeStyle=orthogonalEdgeStyle;rounded=0;orthogonalLoop=1;jettySize=auto;html=1;exitX=0.5;exitY=1;exitDx=0;exitDy=0;" edge="1" parent="WIyWlLk6GJQsqaUBKTNV-1" target="iLrSLBKpsEFtm4TIy_wU-0">
          <mxGeometry relative="1" as="geometry">
            <mxPoint x="-600" y="160" as="sourcePoint" />
          </mxGeometry>
        </mxCell>
        <mxCell id="WIyWlLk6GJQsqaUBKTNV-5" value="No" style="edgeStyle=orthogonalEdgeStyle;rounded=0;html=1;jettySize=auto;orthogonalLoop=1;fontSize=11;endArrow=block;endFill=0;endSize=8;strokeWidth=1;shadow=0;labelBackgroundColor=none;" parent="WIyWlLk6GJQsqaUBKTNV-1" source="WIyWlLk6GJQsqaUBKTNV-6" target="WIyWlLk6GJQsqaUBKTNV-7" edge="1">
          <mxGeometry y="10" relative="1" as="geometry">
            <mxPoint as="offset" />
            <Array as="points">
              <mxPoint x="-460" y="330" />
            </Array>
          </mxGeometry>
        </mxCell>
        <mxCell id="iLrSLBKpsEFtm4TIy_wU-5" style="edgeStyle=orthogonalEdgeStyle;rounded=0;orthogonalLoop=1;jettySize=auto;html=1;exitX=0.5;exitY=1;exitDx=0;exitDy=0;entryX=0.5;entryY=0;entryDx=0;entryDy=0;" edge="1" parent="WIyWlLk6GJQsqaUBKTNV-1" source="WIyWlLk6GJQsqaUBKTNV-6" target="iLrSLBKpsEFtm4TIy_wU-4">
          <mxGeometry relative="1" as="geometry" />
        </mxCell>
        <mxCell id="WIyWlLk6GJQsqaUBKTNV-6" value="About=1" style="rhombus;whiteSpace=wrap;html=1;shadow=0;fontFamily=Helvetica;fontSize=12;align=center;strokeWidth=1;spacing=6;spacingTop=-4;" parent="WIyWlLk6GJQsqaUBKTNV-1" vertex="1">
          <mxGeometry x="-650" y="290" width="100" height="80" as="geometry" />
        </mxCell>
        <mxCell id="iLrSLBKpsEFtm4TIy_wU-8" style="edgeStyle=orthogonalEdgeStyle;rounded=0;orthogonalLoop=1;jettySize=auto;html=1;exitX=0.5;exitY=1;exitDx=0;exitDy=0;entryX=0.5;entryY=0;entryDx=0;entryDy=0;" edge="1" parent="WIyWlLk6GJQsqaUBKTNV-1" source="WIyWlLk6GJQsqaUBKTNV-7" target="iLrSLBKpsEFtm4TIy_wU-7">
          <mxGeometry relative="1" as="geometry" />
        </mxCell>
        <mxCell id="WIyWlLk6GJQsqaUBKTNV-7" value="Scroll to Numbers" style="rounded=1;whiteSpace=wrap;html=1;fontSize=12;glass=0;strokeWidth=1;shadow=0;" parent="WIyWlLk6GJQsqaUBKTNV-1" vertex="1">
          <mxGeometry x="-430" y="310" width="120" height="40" as="geometry" />
        </mxCell>
        <mxCell id="iLrSLBKpsEFtm4TIy_wU-2" style="edgeStyle=orthogonalEdgeStyle;rounded=0;orthogonalLoop=1;jettySize=auto;html=1;entryX=0.5;entryY=0;entryDx=0;entryDy=0;" edge="1" parent="WIyWlLk6GJQsqaUBKTNV-1" source="iLrSLBKpsEFtm4TIy_wU-0" target="WIyWlLk6GJQsqaUBKTNV-6">
          <mxGeometry relative="1" as="geometry" />
        </mxCell>
        <mxCell id="iLrSLBKpsEFtm4TIy_wU-0" value="Header&lt;br&gt;About,Numbers,about2,search events,sponsor, matchmaking&lt;br&gt;footer" style="shape=parallelogram;perimeter=parallelogramPerimeter;whiteSpace=wrap;html=1;fixedSize=1;" vertex="1" parent="WIyWlLk6GJQsqaUBKTNV-1">
          <mxGeometry x="-790" y="200" width="380" height="50" as="geometry" />
        </mxCell>
        <mxCell id="iLrSLBKpsEFtm4TIy_wU-13" style="edgeStyle=orthogonalEdgeStyle;rounded=0;orthogonalLoop=1;jettySize=auto;html=1;entryX=-0.007;entryY=0.628;entryDx=0;entryDy=0;entryPerimeter=0;" edge="1" parent="WIyWlLk6GJQsqaUBKTNV-1" source="iLrSLBKpsEFtm4TIy_wU-4" target="iLrSLBKpsEFtm4TIy_wU-12">
          <mxGeometry relative="1" as="geometry">
            <Array as="points">
              <mxPoint x="-600" y="1115" />
            </Array>
          </mxGeometry>
        </mxCell>
        <mxCell id="iLrSLBKpsEFtm4TIy_wU-4" value="Home about" style="rounded=0;whiteSpace=wrap;html=1;" vertex="1" parent="WIyWlLk6GJQsqaUBKTNV-1">
          <mxGeometry x="-660" y="400" width="120" height="30" as="geometry" />
        </mxCell>
        <mxCell id="iLrSLBKpsEFtm4TIy_wU-14" style="edgeStyle=orthogonalEdgeStyle;rounded=0;orthogonalLoop=1;jettySize=auto;html=1;" edge="1" parent="WIyWlLk6GJQsqaUBKTNV-1" source="iLrSLBKpsEFtm4TIy_wU-6" target="iLrSLBKpsEFtm4TIy_wU-12">
          <mxGeometry relative="1" as="geometry">
            <Array as="points">
              <mxPoint x="-370" y="1100" />
            </Array>
          </mxGeometry>
        </mxCell>
        <mxCell id="iLrSLBKpsEFtm4TIy_wU-6" value="Home about2" style="rounded=0;whiteSpace=wrap;html=1;" vertex="1" parent="WIyWlLk6GJQsqaUBKTNV-1">
          <mxGeometry x="-430" y="470" width="120" height="30" as="geometry" />
        </mxCell>
        <mxCell id="iLrSLBKpsEFtm4TIy_wU-9" style="edgeStyle=orthogonalEdgeStyle;rounded=0;orthogonalLoop=1;jettySize=auto;html=1;entryX=0.5;entryY=0;entryDx=0;entryDy=0;" edge="1" parent="WIyWlLk6GJQsqaUBKTNV-1" source="iLrSLBKpsEFtm4TIy_wU-7" target="iLrSLBKpsEFtm4TIy_wU-6">
          <mxGeometry relative="1" as="geometry" />
        </mxCell>
        <mxCell id="iLrSLBKpsEFtm4TIy_wU-15" style="edgeStyle=orthogonalEdgeStyle;rounded=0;orthogonalLoop=1;jettySize=auto;html=1;entryX=0.5;entryY=0;entryDx=0;entryDy=0;" edge="1" parent="WIyWlLk6GJQsqaUBKTNV-1" source="iLrSLBKpsEFtm4TIy_wU-7" target="iLrSLBKpsEFtm4TIy_wU-17">
          <mxGeometry relative="1" as="geometry">
            <mxPoint x="-210" y="480" as="targetPoint" />
          </mxGeometry>
        </mxCell>
        <mxCell id="iLrSLBKpsEFtm4TIy_wU-7" value="About2=1" style="rhombus;whiteSpace=wrap;html=1;shadow=0;fontFamily=Helvetica;fontSize=12;align=center;strokeWidth=1;spacing=6;spacingTop=-4;" vertex="1" parent="WIyWlLk6GJQsqaUBKTNV-1">
          <mxGeometry x="-420" y="370" width="100" height="80" as="geometry" />
        </mxCell>
        <mxCell id="iLrSLBKpsEFtm4TIy_wU-11" style="edgeStyle=orthogonalEdgeStyle;rounded=0;orthogonalLoop=1;jettySize=auto;html=1;entryX=0.5;entryY=0;entryDx=0;entryDy=0;" edge="1" parent="WIyWlLk6GJQsqaUBKTNV-1" source="iLrSLBKpsEFtm4TIy_wU-10" target="iLrSLBKpsEFtm4TIy_wU-0">
          <mxGeometry relative="1" as="geometry" />
        </mxCell>
        <mxCell id="iLrSLBKpsEFtm4TIy_wU-10" value="Inicio" style="ellipse;whiteSpace=wrap;html=1;" vertex="1" parent="WIyWlLk6GJQsqaUBKTNV-1">
          <mxGeometry x="-660" y="110" width="120" height="50" as="geometry" />
        </mxCell>
        <mxCell id="iLrSLBKpsEFtm4TIy_wU-12" value="Fin" style="ellipse;whiteSpace=wrap;html=1;" vertex="1" parent="WIyWlLk6GJQsqaUBKTNV-1">
          <mxGeometry x="650" y="1090" width="120" height="40" as="geometry" />
        </mxCell>
        <mxCell id="iLrSLBKpsEFtm4TIy_wU-16" value="no" style="text;html=1;align=center;verticalAlign=middle;resizable=0;points=[];autosize=1;strokeColor=none;fillColor=none;" vertex="1" parent="WIyWlLk6GJQsqaUBKTNV-1">
          <mxGeometry x="-285" y="380" width="30" height="20" as="geometry" />
        </mxCell>
        <mxCell id="iLrSLBKpsEFtm4TIy_wU-20" style="edgeStyle=orthogonalEdgeStyle;rounded=0;orthogonalLoop=1;jettySize=auto;html=1;entryX=0.5;entryY=0;entryDx=0;entryDy=0;" edge="1" parent="WIyWlLk6GJQsqaUBKTNV-1" source="iLrSLBKpsEFtm4TIy_wU-17" target="iLrSLBKpsEFtm4TIy_wU-19">
          <mxGeometry relative="1" as="geometry" />
        </mxCell>
        <mxCell id="iLrSLBKpsEFtm4TIy_wU-17" value="Scroll to Events" style="rounded=1;whiteSpace=wrap;html=1;fontSize=12;glass=0;strokeWidth=1;shadow=0;" vertex="1" parent="WIyWlLk6GJQsqaUBKTNV-1">
          <mxGeometry x="-270" y="450" width="120" height="40" as="geometry" />
        </mxCell>
        <mxCell id="iLrSLBKpsEFtm4TIy_wU-22" style="edgeStyle=orthogonalEdgeStyle;rounded=0;orthogonalLoop=1;jettySize=auto;html=1;exitX=0.5;exitY=1;exitDx=0;exitDy=0;entryX=0.5;entryY=0;entryDx=0;entryDy=0;" edge="1" parent="WIyWlLk6GJQsqaUBKTNV-1" source="iLrSLBKpsEFtm4TIy_wU-19" target="iLrSLBKpsEFtm4TIy_wU-21">
          <mxGeometry relative="1" as="geometry" />
        </mxCell>
        <mxCell id="iLrSLBKpsEFtm4TIy_wU-19" value="Ingresa busqueda" style="rounded=0;whiteSpace=wrap;html=1;" vertex="1" parent="WIyWlLk6GJQsqaUBKTNV-1">
          <mxGeometry x="-270" y="510" width="120" height="30" as="geometry" />
        </mxCell>
        <mxCell id="iLrSLBKpsEFtm4TIy_wU-25" style="edgeStyle=orthogonalEdgeStyle;rounded=0;orthogonalLoop=1;jettySize=auto;html=1;entryX=0.5;entryY=0;entryDx=0;entryDy=0;" edge="1" parent="WIyWlLk6GJQsqaUBKTNV-1" source="iLrSLBKpsEFtm4TIy_wU-21" target="iLrSLBKpsEFtm4TIy_wU-24">
          <mxGeometry relative="1" as="geometry" />
        </mxCell>
        <mxCell id="iLrSLBKpsEFtm4TIy_wU-21" value="Ingresa Category" style="rounded=0;whiteSpace=wrap;html=1;" vertex="1" parent="WIyWlLk6GJQsqaUBKTNV-1">
          <mxGeometry x="-270" y="585" width="120" height="30" as="geometry" />
        </mxCell>
        <mxCell id="iLrSLBKpsEFtm4TIy_wU-23" value="or" style="text;html=1;align=center;verticalAlign=middle;resizable=0;points=[];autosize=1;strokeColor=none;fillColor=none;" vertex="1" parent="WIyWlLk6GJQsqaUBKTNV-1">
          <mxGeometry x="-205" y="550" width="30" height="20" as="geometry" />
        </mxCell>
        <mxCell id="iLrSLBKpsEFtm4TIy_wU-28" style="edgeStyle=orthogonalEdgeStyle;rounded=0;orthogonalLoop=1;jettySize=auto;html=1;entryX=0;entryY=0.5;entryDx=0;entryDy=0;" edge="1" parent="WIyWlLk6GJQsqaUBKTNV-1" source="iLrSLBKpsEFtm4TIy_wU-24" target="iLrSLBKpsEFtm4TIy_wU-27">
          <mxGeometry relative="1" as="geometry" />
        </mxCell>
        <mxCell id="iLrSLBKpsEFtm4TIy_wU-24" value="Ingresa Calendary" style="rounded=0;whiteSpace=wrap;html=1;" vertex="1" parent="WIyWlLk6GJQsqaUBKTNV-1">
          <mxGeometry x="-270" y="650" width="120" height="30" as="geometry" />
        </mxCell>
        <mxCell id="iLrSLBKpsEFtm4TIy_wU-26" value="or" style="text;html=1;align=center;verticalAlign=middle;resizable=0;points=[];autosize=1;strokeColor=none;fillColor=none;" vertex="1" parent="WIyWlLk6GJQsqaUBKTNV-1">
          <mxGeometry x="-205" y="620" width="30" height="20" as="geometry" />
        </mxCell>
        <mxCell id="iLrSLBKpsEFtm4TIy_wU-30" style="edgeStyle=orthogonalEdgeStyle;rounded=0;orthogonalLoop=1;jettySize=auto;html=1;entryX=0.5;entryY=0;entryDx=0;entryDy=0;" edge="1" parent="WIyWlLk6GJQsqaUBKTNV-1" source="iLrSLBKpsEFtm4TIy_wU-27" target="iLrSLBKpsEFtm4TIy_wU-29">
          <mxGeometry relative="1" as="geometry" />
        </mxCell>
        <mxCell id="iLrSLBKpsEFtm4TIy_wU-27" value="Calendary+ show all" style="rhombus;whiteSpace=wrap;html=1;shadow=0;fontFamily=Helvetica;fontSize=12;align=center;strokeWidth=1;spacing=6;spacingTop=-4;" vertex="1" parent="WIyWlLk6GJQsqaUBKTNV-1">
          <mxGeometry x="-110" y="625" width="100" height="80" as="geometry" />
        </mxCell>
        <mxCell id="iLrSLBKpsEFtm4TIy_wU-29" value="Home Show All Calendary" style="rounded=0;whiteSpace=wrap;html=1;" vertex="1" parent="WIyWlLk6GJQsqaUBKTNV-1">
          <mxGeometry x="-120" y="730" width="120" height="30" as="geometry" />
        </mxCell>
        <mxCell id="iLrSLBKpsEFtm4TIy_wU-33" style="edgeStyle=orthogonalEdgeStyle;rounded=0;orthogonalLoop=1;jettySize=auto;html=1;entryX=0;entryY=0.5;entryDx=0;entryDy=0;" edge="1" parent="WIyWlLk6GJQsqaUBKTNV-1" source="iLrSLBKpsEFtm4TIy_wU-31" target="WIyWlLk6GJQsqaUBKTNV-6">
          <mxGeometry relative="1" as="geometry" />
        </mxCell>
        <mxCell id="iLrSLBKpsEFtm4TIy_wU-31" value="User" style="shape=umlActor;verticalLabelPosition=bottom;verticalAlign=top;html=1;outlineConnect=0;" vertex="1" parent="WIyWlLk6GJQsqaUBKTNV-1">
          <mxGeometry x="-790" y="310" width="20" height="40" as="geometry" />
        </mxCell>
      </root>
    </mxGraphModel>
  </diagram>
</mxfile>
